<svg width="124" height="124" viewBox="0 0 124 124" fill="none" xmlns="http://www.w3.org/2000/svg">
<path d="M85.7664 2.06665H38.2331C35.3796 2.06665 33.0664 4.37985 33.0664 7.23332V116.767C33.0664 119.62 35.3796 121.933 38.2331 121.933H85.7664C88.6199 121.933 90.9331 119.62 90.9331 116.767V7.23332C90.9331 4.37985 88.6199 2.06665 85.7664 2.06665Z" fill="#F4D4CA"/>
<path d="M85.7667 124H38.2333C36.3156 123.998 34.477 123.235 33.121 121.879C31.7649 120.523 31.0021 118.684 31 116.767V103.333H35.1333V116.767C35.1343 117.589 35.4612 118.376 36.0423 118.958C36.6235 119.539 37.4114 119.866 38.2333 119.867H85.7667C86.5885 119.866 87.3765 119.539 87.9577 118.958C88.5388 118.376 88.8657 117.589 88.8667 116.767V80.6H93V116.767C92.9979 118.684 92.2351 120.523 90.879 121.879C89.523 123.235 87.6844 123.998 85.7667 124Z" fill="#2C2E35"/>
<path d="M35.1353 33.0667H31.002V7.23333C31.0041 5.31559 31.7669 3.47701 33.1229 2.12097C34.479 0.764918 36.3175 0.002147 38.2353 0H85.7686C87.6864 0.002147 89.5249 0.764918 90.881 2.12097C92.237 3.47701 92.9998 5.31559 93.002 7.23333V10.3333H88.8686V7.23333C88.8677 6.41145 88.5408 5.6235 87.9596 5.04234C87.3785 4.46118 86.5905 4.13427 85.7686 4.13333H38.2353C37.4134 4.13427 36.6254 4.46118 36.0443 5.04234C35.4631 5.6235 35.1362 6.41145 35.1353 7.23333V33.0667Z" fill="#2C2E35"/>
<path d="M73.3668 99.2H50.6335C47.78 99.2 45.4668 101.513 45.4668 104.367V106.433C45.4668 109.287 47.78 111.6 50.6335 111.6H73.3668C76.2203 111.6 78.5335 109.287 78.5335 106.433V104.367C78.5335 101.513 76.2203 99.2 73.3668 99.2Z" fill="#5EBAA9"/>
<path d="M73.3671 113.667H50.6337C48.716 113.664 46.8774 112.902 45.5214 111.546C44.1653 110.19 43.4025 108.351 43.4004 106.433V104.367C43.4025 102.449 44.1653 100.61 45.5214 99.2543C46.8774 97.8982 48.716 97.1354 50.6337 97.1333H66.1337V101.267H50.6337C49.8118 101.268 49.0239 101.594 48.4427 102.176C47.8616 102.757 47.5347 103.545 47.5337 104.367V106.433C47.5347 107.255 47.8616 108.043 48.4427 108.624C49.0239 109.205 49.8118 109.532 50.6337 109.533H73.3671C74.1889 109.532 74.9769 109.205 75.558 108.624C76.1392 108.043 76.4661 107.255 76.4671 106.433V104.367C76.4661 103.545 76.1392 102.757 75.558 102.176C74.9769 101.594 74.1889 101.268 73.3671 101.267H70.2671V97.1333H73.3671C75.2848 97.1354 77.1234 97.8982 78.4794 99.2543C79.8355 100.61 80.5982 102.449 80.6004 104.367V106.433C80.5982 108.351 79.8355 110.19 78.4794 111.546C77.1234 112.902 75.2848 113.664 73.3671 113.667Z" fill="#2C2E35"/>
<path d="M53.7344 10.3333H70.2677V14.4666H53.7344V10.3333Z" fill="#2C2E35"/>
<path d="M52.7299 49.0957L55.8003 28.1346L37.6451 40.0335C30.9244 38.4447 23.8571 39.311 17.7191 42.4758C11.581 45.6406 6.7766 50.8955 4.17308 57.2918C1.56957 63.6882 1.3385 70.8046 3.5216 77.3564C5.7047 83.9081 10.1581 89.4636 16.0779 93.02C21.9978 96.5763 28.9939 97.8991 35.8035 96.7497C42.6131 95.6003 48.7874 92.0543 53.212 86.7519C57.6365 81.4495 60.0196 74.74 59.9312 67.8347C59.8428 60.9293 57.2887 54.2831 52.7299 49.0957V49.0957Z" fill="#DBFBF5"/>
<path d="M31 99.2C25.3358 99.1994 19.7801 97.6471 14.9359 94.7117C10.0917 91.7762 6.14426 87.5698 3.52214 82.5491C0.900023 77.5284 -0.296565 71.8853 0.0622961 66.2325C0.421157 60.5797 2.32175 55.1332 5.55773 50.4844L8.94784 52.849C6.06933 56.9837 4.41132 61.8444 4.16306 66.8763C3.9148 71.9082 5.08629 76.9085 7.54381 81.3065C10.0013 85.7044 13.6459 89.3229 18.0614 91.7487C22.4769 94.1745 27.4855 95.31 32.5155 95.0256C37.5455 94.7411 42.3941 93.0482 46.508 90.1401C50.6219 87.2319 53.8353 83.2257 55.7813 78.5787C57.7274 73.9317 58.3277 68.8312 57.5137 63.8594C56.6997 58.8875 54.5043 54.2447 51.178 50.4609C50.98 50.2358 50.8333 49.9703 50.7482 49.6828C50.663 49.3953 50.6414 49.0928 50.6848 48.7961L53.0891 32.3824L38.7776 41.762C38.5432 41.9157 38.28 42.02 38.004 42.0687C37.7279 42.1174 37.4449 42.1095 37.172 42.0453C35.1489 41.5714 33.0779 41.3325 31 41.3334C27.424 41.3221 23.8821 42.0301 20.5853 43.4155C17.2885 44.8009 14.304 46.8352 11.8093 49.3974L8.85713 46.5046C11.7355 43.5482 15.1792 41.2009 18.9832 39.6025C22.7872 38.004 26.8738 37.187 31 37.2C33.0954 37.1996 35.1856 37.4102 37.2388 37.8287L54.6672 26.4062C55.0003 26.1879 55.3893 26.0704 55.7875 26.068C56.1858 26.0656 56.5762 26.1783 56.9119 26.3926C57.2476 26.6068 57.5142 26.9135 57.6797 27.2757C57.8453 27.6379 57.9026 28.0402 57.8449 28.4342L54.9102 48.4684C58.6523 53.0032 61.0276 58.5086 61.7591 64.3424C62.4906 70.1761 61.5481 76.0975 59.0415 81.4159C56.535 86.7342 52.5677 91.2301 47.6026 94.379C42.6376 97.5278 36.8794 99.1999 31 99.2Z" fill="#2C2E35"/>
<path d="M71.2701 64.571L70.2664 85.5321L86.3549 73.6333C93.0756 75.222 100.143 74.3558 106.281 71.191C112.419 68.0262 117.223 62.7713 119.827 56.3749C122.43 49.9785 122.661 42.8622 120.478 36.3104C118.295 29.7586 113.842 24.2031 107.922 20.6468C102.002 17.0905 95.0061 15.7676 88.1965 16.917C81.3869 18.0665 75.2125 21.6124 70.788 26.9148C66.3635 32.2172 63.9804 38.9267 64.0688 45.832C64.1572 52.7374 66.7113 59.3837 71.2701 64.5711V64.571Z" fill="#F5A085"/>
<path d="M70.2666 87.5987C69.9869 87.5986 69.7101 87.5418 69.453 87.4317C69.1959 87.3216 68.9638 87.1604 68.7709 86.9579C68.5779 86.7554 68.428 86.5159 68.3303 86.2538C68.2326 85.9917 68.1892 85.7125 68.2025 85.4331L69.167 65.2912C64.2156 59.3384 61.6711 51.7482 62.0341 44.0138C62.3971 36.2795 65.6412 28.9609 71.1283 23.498C76.6154 18.035 83.9481 14.8232 91.684 14.4943C99.4199 14.1654 106.999 16.7434 112.93 21.7209L110.271 24.8857C105.082 20.5316 98.4401 18.2981 91.6747 18.6324C84.9093 18.9666 78.5199 21.8441 73.7855 26.6885C69.0512 31.533 66.3215 37.9869 66.1429 44.7582C65.9642 51.5295 68.3499 58.1184 72.8222 63.2057C73.1767 63.6087 73.3605 64.1338 73.3348 64.6698L72.5395 81.2807L85.1266 71.9716C85.3678 71.7932 85.645 71.6695 85.9388 71.609C86.2327 71.5486 86.5362 71.5528 86.8282 71.6215C92.3228 72.9172 98.0858 72.4495 103.3 70.2848C108.513 68.1201 112.913 64.3684 115.874 59.562C118.835 54.7556 120.207 49.1388 119.795 43.5085C119.384 37.8783 117.21 32.5207 113.581 28.196L116.746 25.5372C120.874 30.4646 123.369 36.5531 123.886 42.9605C124.403 49.368 122.916 55.7777 119.631 61.3031C116.346 66.8285 111.425 71.1965 105.549 73.8029C99.6726 76.4094 93.1318 77.1254 86.8309 75.8521L71.4958 87.1936C71.14 87.4568 70.7092 87.5988 70.2666 87.5987Z" fill="#2C2E35"/>
<path d="M107.467 41.3334C107.467 51.6667 95.0665 64.0667 92.9999 64.0667C90.9332 64.0667 78.5332 51.6667 78.5332 41.3334C78.5332 37.4966 80.0574 33.8169 82.7704 31.1039C85.4834 28.3909 89.1631 26.8667 92.9999 26.8667C96.8367 26.8667 100.516 28.3909 103.229 31.1039C105.942 33.8169 107.467 37.4966 107.467 41.3334Z" fill="#F4BD33"/>
<path d="M93.0008 47.5333C96.4249 47.5333 99.2008 44.7575 99.2008 41.3333C99.2008 37.9091 96.4249 35.1333 93.0008 35.1333C89.5766 35.1333 86.8008 37.9091 86.8008 41.3333C86.8008 44.7575 89.5766 47.5333 93.0008 47.5333Z" fill="#FFFDFA"/>
<path d="M93.0001 49.6C91.3651 49.6 89.7668 49.1152 88.4074 48.2068C87.0479 47.2985 85.9883 46.0074 85.3627 44.4968C84.737 42.9863 84.5733 41.3242 84.8922 39.7206C85.2112 38.117 85.9985 36.644 87.1547 35.4879C88.3108 34.3318 89.7837 33.5445 91.3873 33.2255C92.9909 32.9065 94.6531 33.0702 96.1636 33.6959C97.6741 34.3216 98.9652 35.3812 99.8736 36.7406C100.782 38.1001 101.267 39.6983 101.267 41.3333C101.264 43.525 100.393 45.6262 98.8428 47.176C97.293 48.7258 95.1918 49.5975 93.0001 49.6ZM93.0001 37.2C92.1826 37.2 91.3834 37.4424 90.7037 37.8966C90.024 38.3508 89.4942 38.9963 89.1814 39.7516C88.8685 40.5068 88.7867 41.3379 88.9462 42.1397C89.1056 42.9415 89.4993 43.678 90.0774 44.256C90.6554 44.8341 91.3919 45.2277 92.1937 45.3872C92.9955 45.5467 93.8266 45.4649 94.5818 45.152C95.3371 44.8392 95.9826 44.3094 96.4368 43.6297C96.891 42.95 97.1334 42.1508 97.1334 41.3333C97.1322 40.2375 96.6963 39.1869 95.9214 38.412C95.1465 37.6371 94.0959 37.2012 93.0001 37.2Z" fill="#2C2E35"/>
<path d="M102.65 57.8304C105.221 54.4688 109.533 47.8554 109.533 41.3334C109.533 36.9485 107.792 32.7432 104.691 29.6425C101.59 26.5419 97.385 24.8 93.0001 24.8C88.6152 24.8 84.4099 26.5419 81.3093 29.6425C78.2087 32.7432 76.4668 36.9485 76.4668 41.3334C76.4668 47.8554 80.7794 54.4688 83.3501 57.8304C84.4759 59.2807 85.6752 60.6724 86.9434 62.0001H78.5335V66.1334H107.467V62.0001H99.0569C100.325 60.6724 101.524 59.2807 102.65 57.8304ZM80.6001 41.3334C80.6001 38.0447 81.9066 34.8907 84.232 32.5653C86.5575 30.2398 89.7114 28.9334 93.0001 28.9334C96.2888 28.9334 99.4428 30.2398 101.768 32.5653C104.094 34.8907 105.4 38.0447 105.4 41.3334C105.4 49.9204 95.7351 60.1622 93.0001 61.8573C90.2652 60.1622 80.6001 49.9204 80.6001 41.3334Z" fill="#2C2E35"/>
<path d="M48.6521 75.6212C48.4983 75.5279 44.8332 73.3262 40.2518 73.3262C39.7801 73.3262 39.3119 73.3449 38.8489 73.3733C39.9239 72.7892 41.0071 72.1127 42.0092 71.3297C46.8484 67.5491 48.882 61.4073 48.9661 61.148C49.0436 60.9078 48.9924 60.6442 48.8293 60.4511C48.6656 60.2594 48.4178 60.1704 48.165 60.201C47.9556 60.2324 42.9939 61.0125 38.4523 65.1429C37.225 66.2595 36.1139 67.4993 35.1375 68.7173C35.5705 67.0274 35.8768 65.1317 35.8768 63.1116C35.8768 56.124 32.2651 50.5415 32.1113 50.3078C31.8421 49.8974 31.1614 49.8974 30.8923 50.3078C30.7384 50.5415 27.1268 56.124 27.1268 63.1116C27.1268 65.1318 27.4331 67.0274 27.866 68.7174C26.8897 67.4993 25.7786 66.2595 24.5512 65.143C20.0096 61.0125 15.0479 60.2324 14.8386 60.201C14.5901 60.1704 14.3388 60.2595 14.1742 60.4512C14.0112 60.6443 13.9599 60.9079 14.0375 61.148C14.1215 61.4074 16.1552 67.5492 20.9945 71.3298C21.9966 72.1128 23.0798 72.7893 24.1548 73.3734C23.6918 73.345 23.2236 73.3263 22.7519 73.3263C18.1704 73.3263 14.5054 75.5279 14.3516 75.6213C14.1337 75.7545 14.0013 75.9918 14.002 76.2469C14.0026 76.5027 14.1372 76.7392 14.3559 76.8703C14.5118 76.9636 18.2267 79.1631 22.7519 79.1631C23.7613 79.1631 24.7561 79.0181 25.7011 78.7978C24.1543 80.6208 24.2061 82.7376 24.211 82.8426C24.2209 83.067 24.3335 83.2751 24.5165 83.4055C24.6411 83.4945 24.7892 83.5408 24.9395 83.5408C25.0093 83.5408 25.079 83.5308 25.1474 83.5109C25.2571 83.4781 27.8661 82.6822 29.8656 80.3701C30.2241 79.9557 30.513 79.5449 30.7728 79.1418V84.2704C30.7728 84.6737 31.0989 85 31.502 85C31.905 85 32.2312 84.6737 32.2312 84.2704V79.1418C32.4909 79.5449 32.7799 79.9557 33.1384 80.3701C35.1379 82.6822 37.7469 83.4781 37.8566 83.5109C37.9249 83.5308 37.9947 83.5408 38.0645 83.5408C38.2148 83.5408 38.3629 83.4945 38.4875 83.4055C38.6705 83.2751 38.783 83.067 38.793 82.8426C38.7978 82.7375 38.8502 80.6153 37.2975 78.7909C38.2476 79.0151 39.2454 79.1631 40.252 79.1631C44.8335 79.1631 48.4985 76.9615 48.6523 76.8681C48.8695 76.7356 49.0019 76.4991 49.0019 76.2447C49.0017 75.9903 48.8693 75.7537 48.6521 75.6212Z" fill="#2A8070"/>
</svg>
