<svg width="45" height="45" viewBox="0 0 45 45" fill="none" xmlns="http://www.w3.org/2000/svg">
<circle cx="22.9273" cy="22.8164" r="22" fill="#F4BD33"/>
<path d="M15.1866 24.6852L15.1593 24.6793L26.8491 24.6793L23.1743 28.3622C22.9943 28.542 22.8956 28.7856 22.8956 29.0412C22.8956 29.2969 22.9943 29.5388 23.1743 29.719L23.7461 30.2911C23.9259 30.4709 24.1655 30.5703 24.421 30.5703C24.6766 30.5703 24.9164 30.4716 25.0962 30.2918L31.3956 23.993C31.5761 23.8125 31.6748 23.572 31.6741 23.3162C31.6748 23.059 31.5761 22.8184 31.3956 22.6382L25.0962 16.3388C24.9164 16.1592 24.6768 16.0603 24.421 16.0603C24.1655 16.0603 23.9259 16.1593 23.7461 16.3388L23.1743 16.9109C22.9943 17.0904 22.8956 17.3302 22.8956 17.5858C22.8956 17.8413 22.9943 18.0684 23.1743 18.2481L26.8906 21.9516L15.1735 21.9516C14.647 21.9516 14.2046 22.4054 14.2046 22.9316L14.2046 23.7408C14.2046 24.267 14.6601 24.6852 15.1866 24.6852Z" fill="white"/>
</svg>
