<svg width="25" height="25" viewBox="0 0 25 25" fill="none" xmlns="http://www.w3.org/2000/svg">
<path d="M12.2917 6.38867C8.81642 6.38867 6.00293 9.20523 6.00293 12.6774C6.00293 16.1527 8.81949 18.9662 12.2917 18.9662C15.7669 18.9662 18.5804 16.1496 18.5804 12.6774C18.5804 9.20217 15.7639 6.38867 12.2917 6.38867ZM12.2917 16.7593C10.0358 16.7593 8.20981 14.9323 8.20981 12.6774C8.20981 10.4225 10.0368 8.59555 12.2917 8.59555C14.5466 8.59555 16.3735 10.4225 16.3735 12.6774C16.3746 14.9323 14.5476 16.7593 12.2917 16.7593Z" fill="black"/>
<path d="M17.3403 0.504233C15.0854 0.399046 9.5003 0.404153 7.24338 0.504233C5.26015 0.597165 3.51077 1.07612 2.10045 2.48644C-0.25655 4.84345 0.0447134 8.01948 0.0447134 12.6773C0.0447134 17.4444 -0.220807 20.5469 2.10045 22.8682C4.46665 25.2334 7.68863 24.9239 12.2913 24.9239C17.0135 24.9239 18.6434 24.927 20.3131 24.2806C22.5833 23.3992 24.2969 21.37 24.4644 17.7253C24.5706 15.4694 24.5645 9.88527 24.4644 7.62835C24.2622 3.3259 21.9532 0.71665 17.3403 0.504233ZM20.9095 21.3088C19.3644 22.8539 17.2208 22.716 12.2617 22.716C7.15555 22.716 5.10798 22.7916 3.61392 21.2935C1.89314 19.5808 2.20462 16.8307 2.20462 12.661C2.20462 7.01867 1.62558 2.95519 7.28831 2.66516C8.58936 2.6192 8.97232 2.60389 12.2474 2.60389L12.2934 2.63452C17.7355 2.63452 22.0053 2.06468 22.2616 7.72639C22.3198 9.01825 22.3331 9.40631 22.3331 12.6763C22.3321 17.7232 22.4281 19.7831 20.9095 21.3088Z" fill="black"/>
<path d="M18.8289 7.61C19.6405 7.61 20.2985 6.95206 20.2985 6.14045C20.2985 5.32884 19.6405 4.6709 18.8289 4.6709C18.0173 4.6709 17.3594 5.32884 17.3594 6.14045C17.3594 6.95206 18.0173 7.61 18.8289 7.61Z" fill="black"/>
</svg>
