<svg width="26" height="26" viewBox="0 0 26 26" fill="none" xmlns="http://www.w3.org/2000/svg">
<path d="M13.2393 0.182129C6.33593 0.182129 0.739258 5.77855 0.739258 12.6821C0.739258 19.5857 6.33593 25.1821 13.2393 25.1821C20.1426 25.1821 25.7393 19.5857 25.7393 12.6821C25.7393 5.77855 20.1426 0.182129 13.2393 0.182129ZM14.6776 16.834C13.5214 16.834 12.4339 16.209 12.0615 15.4993C12.0615 15.4993 11.4395 17.966 11.3088 18.442C10.8451 20.1248 9.4812 21.8082 9.37506 21.9461C9.30115 22.042 9.13772 22.0121 9.12084 21.8847C9.09194 21.6704 8.7436 19.5473 9.15332 17.8159C9.35818 16.9463 10.5301 11.9811 10.5301 11.9811C10.5301 11.9811 10.1889 11.2975 10.1889 10.2867C10.1889 8.69978 11.1086 7.51512 12.2538 7.51512C13.2275 7.51512 13.6976 8.24632 13.6976 9.12279C13.6976 10.1018 13.0746 11.5658 12.7531 12.9223C12.4843 14.0581 13.3221 14.9847 14.4423 14.9847C16.4712 14.9847 17.8367 12.3791 17.8367 9.29134C17.8367 6.94504 16.2572 5.18801 13.382 5.18801C10.1347 5.18801 8.10959 7.61026 8.10959 10.3164C8.10959 11.2489 8.38529 11.9074 8.8165 12.4161C9.01419 12.6502 9.04233 12.7443 8.97046 13.0128C8.91854 13.21 8.80166 13.6842 8.75205 13.8716C8.68069 14.1433 8.46125 14.2399 8.21547 14.1399C6.72033 13.5294 6.02315 11.8911 6.02315 10.0494C6.02315 7.0077 8.58811 3.36039 13.6758 3.36039C17.7641 3.36039 20.4549 6.31845 20.4549 9.4944C20.4551 13.6959 18.1193 16.834 14.6776 16.834Z" fill="black"/>
</svg>
