<svg width="28" height="23" viewBox="0 0 28 23" fill="none" xmlns="http://www.w3.org/2000/svg">
<path d="M24.7579 6.23124C25.8466 5.45828 26.7623 4.49347 27.5085 3.38255V3.38144C26.5124 3.81755 25.4528 4.10755 24.3464 4.24809C25.4841 3.56882 26.3529 2.5014 26.7612 1.21536C25.7004 1.84778 24.5293 2.29394 23.2812 2.54378C22.274 1.47078 20.8385 0.807129 19.2725 0.807129C16.2342 0.807129 13.7881 3.27324 13.7881 6.29594C13.7881 6.73094 13.8249 7.14921 13.9153 7.5474C9.35337 7.32432 5.31568 5.13817 2.60307 1.80651C2.13014 2.62855 1.8513 3.56882 1.8513 4.58047C1.8513 6.48109 2.82949 8.16532 4.28953 9.14128C3.40726 9.12455 2.54283 8.86801 1.81003 8.46536V8.52559C1.81003 11.1925 3.71176 13.4076 6.20687 13.9185C5.7596 14.0412 5.2733 14.0992 4.76803 14.0992C4.41668 14.0992 4.06199 14.0791 3.7296 14.0055C4.4401 16.1782 6.45895 17.7766 8.85703 17.829C6.98987 19.2891 4.61857 20.1691 2.05207 20.1691C1.60257 20.1691 1.17091 20.149 0.739258 20.0944C3.1708 21.6615 6.05072 22.5571 9.15818 22.5571C18.8431 22.5571 25.155 14.4773 24.7579 6.23124Z" fill="black"/>
</svg>
